# xmcd CD database file
#
# Track frame offsets:
#	150
#	18266
#	31751
#	52910
#	72723
#	90957
#	114629
#	137040
#	154960
#	172602
#	193494
#	216684
#	230484
#	245258
#	278180
#
# Disc length: 3845 seconds
#
# Revision: 0
# Processed by: cddbd v1.5.2PL0 Copyright (c) Steve Scherf et al.
# Submitted via: CDex 1.51
#
DISCID=d20f030f
DTITLE=Roman Dragoun - Piano
DYEAR=2012
DGENRE=Jazz
TTITLE0=Ptaci Vesmiru
TTITLE1=Jako Dym
TTITLE2=Padesat
TTITLE3=Posledni Laska
TTITLE4=Ze Tvych Vlasu V Ní Se Dotykam
TTITLE5=Kronikar
TTITLE6=Slunci Bliz
TTITLE7=Tvuj Zivot
TTITLE8=Ostnatej Drat
TTITLE9=Sami
TTITLE10=Nic A Vsecko
TTITLE11=Marie
TTITLE12=Ledy Nasich Vzpominek
TTITLE13=Zdroj
TTITLE14=Posledni Rano
EXTD=YEAR: 2012
EXTT0=
EXTT1=
EXTT2=
EXTT3=
EXTT4=
EXTT5=
EXTT6=
EXTT7=
EXTT8=
EXTT9=
EXTT10=
EXTT11=
EXTT12=
EXTT13=
EXTT14=
PLAYORDER=
